<svg width="60" height="50" viewBox="0 0 60 50" fill="none" xmlns="http://www.w3.org/2000/svg">
<ellipse cx="29.5" cy="47.5953" rx="15.3846" ry="2.40385" fill="#F1F1F1"/>
<g clip-path="url(#clip0_9566_74181)">
<path d="M23.2532 36.4877C23.2532 36.4877 22.9919 40.3153 22.7581 43.492C22.7581 43.492 16.4597 44.7847 18.7563 47.2005C21.1491 48.9241 25.8156 47.6726 26.2878 46.082C26.7599 44.4913 26.1228 38.4909 28.126 36.2539" fill="#4269EC"/>
<path d="M23.2532 36.4877C23.2532 36.4877 22.9919 40.3153 22.7581 43.492C22.7581 43.492 16.4597 44.7847 18.7563 47.2005C21.1491 48.9241 25.8156 47.6726 26.2878 46.082C26.7599 44.4913 26.1228 38.4909 28.126 36.2539" stroke="#000102" stroke-width="1.11058" stroke-miterlimit="10"/>
<path d="M34.9836 35.9648C34.9836 35.9648 35.7354 38.8207 35.9371 43.4276C35.9371 43.4276 42.2355 44.7203 39.9389 47.136C37.5461 48.8596 32.8796 47.6082 32.4074 46.0175C31.9353 44.4269 32.114 38.9719 31.0322 36.1895" fill="#4269EC"/>
<path d="M34.9836 35.9648C34.9836 35.9648 35.7354 38.8207 35.9371 43.4276C35.9371 43.4276 42.2355 44.7203 39.9389 47.136C37.5461 48.8596 32.8796 47.6082 32.4074 46.0175C31.9353 44.4269 32.114 38.9719 31.0322 36.1895" stroke="#000102" stroke-width="1.11058" stroke-miterlimit="10"/>
<path d="M41.1673 35.4829C41.1673 36.3997 40.4247 37.1423 39.5079 37.1423H19.1733C18.2565 37.1423 17.5093 36.3997 17.5093 35.4829V24.1971C13.9613 24.3392 15.1806 21.135 17.5093 20.6445V8.56566C17.5093 7.64886 18.2519 6.90625 19.1733 6.90625H33.5945C34.0804 6.90625 34.5571 7.04835 34.9651 7.30964L40.2459 11.6003C40.9656 12.0678 41.3965 12.87 41.3873 13.7318C41.3873 13.7318 41.314 18.7742 41.314 20.6216C43.7572 21.1441 43.8214 24.6646 41.2727 24.2017C41.2452 27.0208 41.1627 35.4875 41.1627 35.4875L41.1673 35.4829Z" fill="#4269EC" stroke="#000102" stroke-width="1.11058" stroke-miterlimit="10"/>
<path d="M34.5987 31.6009L38.6647 27.2461H23.0837L17.5508 31.6009H34.5987Z" fill="#C9C9C9" stroke="#000102" stroke-width="1.11058" stroke-linecap="round" stroke-linejoin="round"/>
<path d="M25.5956 14.9787C25.5956 15.6709 25.0318 16.2347 24.3396 16.2347C23.6474 16.2347 23.0836 15.6709 23.0836 14.9787C23.0836 14.2865 23.6474 13.7227 24.3396 13.7227C25.0318 13.7227 25.5956 14.2865 25.5956 14.9787Z" fill="#000102"/>
<path d="M31.4035 14.9787C31.4035 15.6709 30.8397 16.2347 30.1475 16.2347C29.4553 16.2347 28.8915 15.6709 28.8915 14.9787C28.8915 14.2865 29.4553 13.7227 30.1475 13.7227C30.8397 13.7227 31.4035 14.2865 31.4035 14.9787Z" fill="#000102"/>
<path d="M25.5084 20.6632C25.5084 20.6632 28.4376 21.1903 30.1887 19.0312" stroke="#000102" stroke-width="1.11058" stroke-miterlimit="10" stroke-linecap="round"/>
<path d="M18.7929 24.9954C15.7904 24.3811 12.7604 21.727 12.7099 19.027C12.6366 15.3048 15.7629 14.5714 15.7629 14.5714C14.9286 12.4994 16.5926 10.9959 17.9999 10.8859C19.4072 10.7758 20.2919 11.9814 20.1956 13.7234C20.1039 15.4607 19.7005 16.5471 17.7615 16.978C15.057 17.1063 15.1716 20.2189 17.514 20.6406" fill="#4269EC"/>
<path d="M18.7929 24.9954C15.7904 24.3811 12.7604 21.727 12.7099 19.027C12.6366 15.3048 15.7629 14.5714 15.7629 14.5714C14.9286 12.4994 16.5926 10.9959 17.9999 10.8859C19.4072 10.7758 20.2919 11.9814 20.1956 13.7234C20.1039 15.4607 19.7005 16.5471 17.7615 16.978C15.057 17.1063 15.1716 20.2189 17.514 20.6406" stroke="#000102" stroke-width="1.11058" stroke-miterlimit="10" stroke-linecap="round"/>
<path d="M39.123 19.875C43.5053 20.5855 46.1823 23.7164 45.8844 26.8106C45.536 30.4594 41.4333 30.5007 41.4333 30.5007C38.0366 31.8117 36.3405 29.7123 36.4322 27.9703C36.5239 26.233 38.0457 25.6738 40.9291 27.2415C43.4182 26.8748 43.4457 24.2665 38.9213 23.4734" fill="#4269EC"/>
<path d="M39.123 19.875C43.5053 20.5855 46.1823 23.7164 45.8844 26.8106C45.536 30.4594 41.4333 30.5007 41.4333 30.5007C38.0366 31.8117 36.3405 29.7123 36.4322 27.9703C36.5239 26.233 38.0457 25.6738 40.9291 27.2415C43.4182 26.8748 43.4457 24.2665 38.9213 23.4734" stroke="#000102" stroke-width="1.11058" stroke-miterlimit="10" stroke-linecap="round"/>
<path d="M25.16 18.172C25.6184 17.1818 29.6982 17.1543 30.2437 18.2912C30.9771 19.8222 30.5554 23.2648 29.226 23.5811C28.2359 23.8149 25.9989 23.9753 25.2013 22.7239C24.7337 21.9905 24.6191 19.3409 25.1646 18.172H25.16Z" fill="#00CAFF" stroke="#000102" stroke-width="1.11058" stroke-miterlimit="10"/>
<path d="M36.5053 15.0977C35.969 17.4309 38.6048 17.9627 38.6644 15.4415L36.5053 15.0977Z" fill="#4269EC"/>
<path d="M36.5053 15.0977C35.969 17.4309 38.6048 17.9627 38.6644 15.4415" stroke="#000102" stroke-width="1.11058" stroke-miterlimit="10" stroke-linecap="round"/>
<path d="M39.4851 3.41505C41.1308 1.67771 38.3345 -0.165053 37.0052 1.98026" stroke="#000102" stroke-width="1.11058" stroke-miterlimit="10" stroke-linecap="round"/>
<path d="M44.3119 6.20944C46.2418 4.79299 43.8169 2.48266 42.1254 4.35293" stroke="#000102" stroke-width="1.11058" stroke-miterlimit="10" stroke-linecap="round"/>
<path d="M47.2687 10.9476C49.4323 9.92538 47.4933 7.19332 45.4763 8.71062" stroke="#000102" stroke-width="1.11058" stroke-miterlimit="10" stroke-linecap="round"/>
<path d="M30.6059 22.0195L34.5985 31.6001H17.5506L13.5534 22.0195H30.6059Z" fill="#AAAAAA" stroke="#000102" stroke-width="1.11058" stroke-linecap="round" stroke-linejoin="round"/>
</g>
<defs>
<clipPath id="clip0_9566_74181">
<rect width="36.5665" height="48.0769" fill="white" transform="translate(12.1784 0.480469)"/>
</clipPath>
</defs>
</svg>
